<svg width="160" height="160" viewBox="0 0 160 160" fill="none" xmlns="http://www.w3.org/2000/svg">
<path d="M160 80C160 124.183 124.183 160 80 160C35.8172 160 0 124.183 0 80C0 35.8172 35.8172 0 80 0C124.183 0 160 35.8172 160 80ZM12 80C12 117.555 42.4446 148 80 148C117.555 148 148 117.555 148 80C148 42.4446 117.555 12 80 12C42.4446 12 12 42.4446 12 80Z" fill="#EFEBE2"/>
<path d="M70.7296 0.538946C86.4455 -1.29457 102.352 1.5734 116.438 8.78018C130.524 15.987 142.157 27.2089 149.865 41.0268C157.573 54.8448 161.011 70.6382 159.743 86.4098C158.475 102.181 152.559 117.223 142.743 129.632C132.926 142.042 119.651 151.261 104.594 156.126C89.5381 160.99 73.3775 161.28 58.1563 156.96C42.935 152.64 29.3367 143.903 19.0809 131.854C8.82508 119.806 2.37244 104.986 0.538937 89.2704L12.4581 87.8798C14.0166 101.238 19.5013 113.835 28.2187 124.076C36.9362 134.317 48.4948 141.744 61.4328 145.416C74.3709 149.088 88.1074 148.841 100.905 144.707C113.703 140.572 124.987 132.735 133.331 122.187C141.675 111.64 146.704 98.8542 147.781 85.4483C148.859 72.0424 145.937 58.6181 139.385 46.8728C132.833 35.1275 122.945 25.5889 110.972 19.4632C98.9993 13.3374 85.4787 10.8996 72.1201 12.4581L70.7296 0.538946Z" fill="#A68465"/>
</svg>
