<svg width="40" height="41" viewBox="0 0 40 41" fill="none" xmlns="http://www.w3.org/2000/svg">
<rect y="0.5" width="40" height="40" rx="20" fill="#A68465"/>
<path fill-rule="evenodd" clip-rule="evenodd" d="M26.0002 16.5C26.0002 19.8137 23.314 22.5 20.0002 22.5C16.6865 22.5 14.0002 19.8137 14.0002 16.5C14.0002 13.1863 16.6865 10.5 20.0002 10.5C23.314 10.5 26.0002 13.1863 26.0002 16.5ZM24.0002 16.5C24.0002 18.7091 22.2094 20.5 20.0002 20.5C17.7911 20.5 16.0002 18.7091 16.0002 16.5C16.0002 14.2909 17.7911 12.5 20.0002 12.5C22.2094 12.5 24.0002 14.2909 24.0002 16.5Z" fill="white"/>
<path d="M20.0002 25.5C13.5259 25.5 8.00952 29.3284 5.9082 34.692C6.4201 35.2004 6.95934 35.6812 7.52353 36.1321C9.08827 31.2077 13.997 27.5 20.0002 27.5C26.0035 27.5 30.9122 31.2077 32.477 36.1321C33.0412 35.6812 33.5804 35.2004 34.0923 34.6921C31.991 29.3284 26.4746 25.5 20.0002 25.5Z" fill="white"/>
</svg>
