<svg width="18" height="18" viewBox="0 0 18 18" fill="none" xmlns="http://www.w3.org/2000/svg">
<path fill-rule="evenodd" clip-rule="evenodd" d="M8.99996 1.31885C4.74276 1.31885 1.29163 4.76999 1.29163 9.02718C1.29163 13.2844 4.74276 16.7355 8.99996 16.7355C13.2572 16.7355 16.7083 13.2844 16.7083 9.02718C16.7083 4.76999 13.2572 1.31885 8.99996 1.31885ZM0.041626 9.02718C0.041626 4.07963 4.05241 0.0688477 8.99996 0.0688477C13.9475 0.0688477 17.9583 4.07963 17.9583 9.02718C17.9583 13.9747 13.9475 17.9855 8.99996 17.9855C4.05241 17.9855 0.041626 13.9747 0.041626 9.02718ZM8.99996 5.06885C9.34514 5.06885 9.62496 5.34867 9.62496 5.69385V8.7683L11.5252 10.6686C11.7693 10.9127 11.7693 11.3084 11.5252 11.5525C11.2812 11.7965 10.8854 11.7965 10.6414 11.5525L8.55802 9.46912C8.44081 9.35191 8.37496 9.19294 8.37496 9.02718V5.69385C8.37496 5.34867 8.65478 5.06885 8.99996 5.06885Z" fill="#2C2D3A"/>
</svg>
