<svg width="110" height="110" viewBox="0 0 110 110" fill="none" xmlns="http://www.w3.org/2000/svg">
<path d="M83.1201 84.0664C83.1201 84.0664 108.508 73.0607 103.518 79.4639C98.5446 85.8438 88.6084 91.7468 88.5322 91.792L55.4814 109.996C55.3211 109.997 55.1606 110 55 110C54.0122 110 53.0307 109.97 52.0557 109.919L84 92.8145C84.0648 92.785 95.5757 87.5495 100.554 81.1631C105.545 74.759 80.9619 86.4834 80.9619 86.4834L40.8242 108.152C40.0567 107.948 39.296 107.727 38.542 107.491L83.1201 84.0664ZM95.0312 92.7139C87.6323 100.565 77.9504 106.238 67.0459 108.675L91.5918 94.7832C91.5918 94.7832 92.9426 94.0044 95.0312 92.7139ZM109.669 61.0518C109.336 64.0922 108.756 67.0579 107.948 69.9287C97.0264 72.9193 80.7568 82.0088 80.7568 82.0088L32.4658 105.184C30.8318 104.449 29.2399 103.637 27.6953 102.752L95.1748 69.6455C95.2324 69.6218 103.94 66.0238 109.669 61.0518ZM93.1523 15.3867C94.2827 16.4756 95.3663 17.6125 96.4004 18.7939L69.9844 30.0029C69.8421 30.0831 27.9808 53.7031 33.3184 65.1416C38.6602 76.5845 88.9519 57.9331 89.082 57.8848L109.587 48.2363C109.859 50.4528 110 52.71 110 55C110 55.6292 109.988 56.2558 109.967 56.8799C104.325 58.0174 92.3633 63.2109 92.3633 63.2109L56.582 80.917C58.2322 79.6839 59.7615 78.3401 60.9502 76.9219C66.1664 70.6985 41.1826 81.5439 41.1826 81.5439L16.1533 93.9297C15.7582 93.5353 15.3684 93.1356 14.9854 92.7295C23.4466 87.668 34.3282 80.0732 32.6514 75.3252C31.3978 71.7783 23.2754 73.5354 14.9404 76.4307C15.2722 76.0897 15.5872 75.7439 15.8809 75.3936C19.0329 71.6326 11.1549 74.1066 4.42773 76.6523C2.66441 72.5391 1.38745 68.1678 0.670898 63.6104L13.2832 57.4229C13.3496 57.3955 25.0377 52.5716 30.2393 46.3662C31.0096 45.4471 31.1203 44.9011 30.751 44.6367L93.1523 15.3867ZM7.875 83.3672C14.4676 81.3688 21.3202 79.8475 18.3311 83.2852C16.5305 85.3558 14.1624 87.3404 11.8164 89.0615C10.3873 87.2522 9.07117 85.3501 7.875 83.3672ZM99.7207 22.9795C99.8548 23.1664 99.9874 23.3543 100.119 23.543L85.3438 30.834C85.315 30.8484 81.4069 32.8053 76.5566 35.6572C75.5243 36.2642 74.4487 36.9108 73.3594 37.5889C72.6613 38.0234 71.9582 38.4718 71.2559 38.9287C70.8068 39.2209 70.3589 39.5178 69.9131 39.8174C69.7797 39.907 69.6456 39.9957 69.5127 40.0859C69.4718 40.1137 69.4305 40.1411 69.3896 40.1689C68.647 40.6747 67.9139 41.1892 67.1992 41.709C66.9355 41.9008 66.6742 42.0931 66.416 42.2861C65.764 42.7737 65.1309 43.2647 64.5244 43.7568C64.2405 43.9872 63.963 44.2187 63.6914 44.4492C63.3819 44.712 63.0795 44.9731 62.7881 45.2354C62.1993 45.7653 61.6512 46.2946 61.1504 46.8174C60.2088 47.8001 59.4404 48.7647 58.9043 49.6885C58.6912 50.0557 58.5133 50.4155 58.3779 50.7686C58.3435 50.8583 58.3113 50.9474 58.2822 51.0361C58.198 51.293 58.137 51.5455 58.0996 51.793C58.0162 52.3445 58.052 52.8718 58.2256 53.3682C58.3024 53.5877 58.4063 53.7867 58.5342 53.9668C58.7192 54.2273 58.9555 54.4478 59.2393 54.6309C59.3854 54.7252 59.5444 54.8088 59.7148 54.8838C59.7308 54.8908 59.7465 54.8984 59.7627 54.9053C59.8713 54.9513 59.9848 54.9926 60.1025 55.0312C60.2583 55.0824 60.4216 55.1283 60.5928 55.167C60.8414 55.2232 61.1058 55.2658 61.3848 55.2969C61.7772 55.3406 62.1984 55.36 62.6455 55.3574C62.6976 55.3571 62.75 55.3544 62.8027 55.3535C63.1397 55.3478 63.4908 55.3329 63.8545 55.3037C64.2159 55.2747 64.5894 55.2322 64.9746 55.1816C65.0367 55.1735 65.0994 55.1669 65.1621 55.1582C65.2102 55.1515 65.2582 55.1437 65.3066 55.1367C65.5877 55.0963 65.8742 55.0506 66.166 55C66.4535 54.9501 66.7459 54.8951 67.043 54.8359C67.1261 54.8194 67.2101 54.8044 67.2939 54.7871C67.934 54.6554 68.5938 54.5023 69.2695 54.333C70.1433 54.1141 71.0436 53.8677 71.96 53.5967C72.142 53.5428 72.3245 53.4873 72.5078 53.4316C72.7704 53.352 73.0341 53.2706 73.2988 53.1875C73.5219 53.1175 73.7455 53.0459 73.9697 52.9736C74.501 52.8025 75.0347 52.6236 75.5703 52.4414C76.2999 52.1933 77.0328 51.9385 77.7627 51.6748C77.7819 51.6679 77.8011 51.6612 77.8203 51.6543C80.3058 50.7549 82.7653 49.7804 85.0234 48.8438C87.8547 47.6694 90.3686 46.5524 92.2168 45.708C94.2035 44.8004 95.4216 44.2099 95.4375 44.2021L107.683 39.1572C107.902 39.8885 108.106 40.6264 108.296 41.3701L92.4297 48.125C92.2552 48.1997 54.6389 64.2799 51.9717 56.6592C49.3042 49.0301 80.8876 32.1285 80.9727 32.083L99.7207 22.9795ZM55 0C62.7859 0 70.1939 1.61833 76.9062 4.53613L4.74609 32.9688C3.69163 35.3781 2.80593 37.8783 2.10156 40.4531L83.9248 8.21191C85.1264 8.95633 86.2969 9.74608 87.4346 10.5781L25.5264 39.3398C25.4376 39.3743 13.6658 43.946 8.33887 50.0342C7.21023 51.3242 7.44353 51.8793 8.51367 51.957L0.0126953 56.1641C0.00465877 55.777 0 55.389 0 55C0 24.6244 24.6245 0.000131961 55 0ZM102.452 27.1787C102.693 27.5893 102.929 28.0035 103.16 28.4209L92.8125 33.2285C92.8125 33.2285 80.9721 37.8126 75.625 43.9238C70.2783 50.0348 95.4863 39.7217 95.4863 39.7217L106.141 34.7266C106.297 35.1199 106.448 35.5154 106.596 35.9131L93.1943 42.0137C93.157 42.0274 89.0266 43.544 84.4092 44.9785C84.1308 45.065 83.8505 45.1508 83.5693 45.2363C82.4432 45.579 81.3012 45.9105 80.1943 46.21C79.7988 46.317 79.4077 46.4199 79.0234 46.5176C78.9252 46.5425 78.8278 46.5685 78.7305 46.5928C78.2412 46.7147 77.7636 46.825 77.3037 46.9268C76.2954 47.1498 75.37 47.3214 74.5781 47.4141C74.4105 47.4337 74.2488 47.4484 74.0938 47.4609C73.7791 47.4864 73.4914 47.4986 73.2344 47.4922C73.0757 47.4882 72.9291 47.4752 72.7949 47.458C72.6831 47.4437 72.5799 47.4264 72.4863 47.4023C72.3817 47.3754 72.2903 47.3396 72.21 47.2998C72.151 47.2707 72.0979 47.2405 72.0527 47.2041C71.6773 46.901 71.7903 46.3437 72.5703 45.4521C75.5576 42.0379 80.0948 38.8619 83.5176 36.7236C84.8073 35.918 85.9397 35.2612 86.7705 34.793C87.67 34.286 88.216 34.0002 88.2295 33.9932L102.452 27.1787Z" fill="#DFD9C8"/>
</svg>
