<svg width="26" height="26" viewBox="0 0 26 26" fill="none" xmlns="http://www.w3.org/2000/svg">
<path d="M21.3887 21.4001H21.4001M21.3887 21.4001C20.6414 22.141 19.2872 21.9565 18.3376 21.9565C17.1719 21.9565 16.6105 22.1845 15.7786 23.0165C15.0702 23.7249 14.1205 25.0001 13.0001 25.0001C11.8796 25.0001 10.9299 23.7249 10.2215 23.0165C9.38957 22.1845 8.82821 21.9565 7.6625 21.9565C6.71283 21.9565 5.35864 22.141 4.6114 21.4001C3.85818 20.6532 4.04355 19.2933 4.04355 18.3376C4.04355 17.1298 3.7794 16.5744 2.91926 15.7143C1.63977 14.4348 1.00002 13.795 1 13C1.00001 12.205 1.63975 11.5653 2.91923 10.2858C3.68705 9.51801 4.04355 8.75716 4.04355 7.66249C4.04355 6.71281 3.859 5.35859 4.60001 4.61135C5.34693 3.85815 6.70674 4.04352 7.66252 4.04352C8.75716 4.04352 9.51801 3.68705 10.2858 2.91925C11.5653 1.63975 12.2051 1 13 1C13.795 1 14.4348 1.63975 15.7143 2.91925C16.4819 3.68689 17.2426 4.04352 18.3376 4.04352C19.2873 4.04352 20.6415 3.85897 21.3887 4.60001C22.1419 5.34693 21.9565 6.70673 21.9565 7.66249C21.9565 8.87032 22.2207 9.42568 23.0808 10.2858C24.3603 11.5653 25.0001 12.205 25.0001 13C25.0001 13.795 24.3603 14.4348 23.0808 15.7143C22.2207 16.5743 21.9565 17.1298 21.9565 18.3376C21.9565 19.2933 22.1419 20.6532 21.3887 21.4001Z" stroke="#222222" stroke-width="1.58333"/>
</svg>
