<svg width="19" height="19" viewBox="0 0 19 19" fill="none" xmlns="http://www.w3.org/2000/svg">
<path d="M9.49998 15.8334H16.625M2.375 15.8334H3.70068C4.08795 15.8334 4.28158 15.8334 4.4638 15.7897C4.62536 15.7509 4.77981 15.6869 4.92147 15.6001C5.08126 15.5022 5.21818 15.3653 5.49202 15.0914L15.4375 5.14593C16.0934 4.49009 16.0934 3.42677 15.4375 2.77093C14.7817 2.11509 13.7184 2.11509 13.0625 2.77093L3.117 12.7164C2.84316 12.9903 2.70624 13.1272 2.60832 13.287C2.52151 13.4286 2.45753 13.5831 2.41875 13.7446C2.375 13.9269 2.375 14.1205 2.375 14.5078V15.8334Z" stroke="#A68465" stroke-width="1.5" stroke-linecap="round" stroke-linejoin="round"/>
</svg>
