<svg width="36" height="36" viewBox="0 0 36 36" fill="none" xmlns="http://www.w3.org/2000/svg">
<path d="M30.8919 7.22289C30.1471 6.47769 29.2627 5.88654 28.2893 5.48322C27.3159 5.0799 26.2726 4.87231 25.219 4.87231C24.1654 4.87231 23.1221 5.0799 22.1487 5.48322C21.1753 5.88654 20.2909 6.47769 19.5461 7.22289L18.0003 8.76873L16.4544 7.22289C14.9499 5.71834 12.9093 4.87309 10.7815 4.87309C8.65375 4.87309 6.61314 5.71834 5.10859 7.22289C3.60404 8.72744 2.75879 10.7681 2.75879 12.8958C2.75879 15.0236 3.60404 17.0642 5.10859 18.5687L18.0003 31.4604L30.8919 18.5687C31.6371 17.8239 32.2283 16.9395 32.6316 15.9661C33.0349 14.9927 33.2425 13.9494 33.2425 12.8958C33.2425 11.8422 33.0349 10.7989 32.6316 9.8255C32.2283 8.85212 31.6371 7.96775 30.8919 7.22289Z" fill="#A68465" stroke="#A68465" stroke-width="3" stroke-linecap="round" stroke-linejoin="round"/>
</svg>
