<svg width="25" height="25" viewBox="0 0 25 25" fill="none" xmlns="http://www.w3.org/2000/svg">
<path d="M18.75 4.66672C17.0924 3.00911 14.8442 2.07788 12.5 2.07788C10.1558 2.07788 7.90757 3.00911 6.24997 4.66672C4.59236 6.32432 3.66113 8.57251 3.66113 10.9167C3.66113 13.2609 4.59236 15.5091 6.24997 17.1667L11.7396 22.6667C11.8364 22.7643 11.9516 22.8418 12.0785 22.8947C12.2055 22.9476 12.3416 22.9748 12.4791 22.9748C12.6166 22.9748 12.7528 22.9476 12.8797 22.8947C13.0067 22.8418 13.1219 22.7643 13.2187 22.6667L18.75 17.1146C20.4006 15.4639 21.328 13.2251 21.328 10.8907C21.328 8.55624 20.4006 6.31742 18.75 4.66672ZM17.2604 15.625L12.5 20.4063L7.73955 15.625C6.79908 14.6837 6.1588 13.4847 5.89965 12.1795C5.6405 10.8744 5.77412 9.52166 6.28362 8.29242C6.79311 7.06319 7.65561 6.0126 8.76208 5.27346C9.86856 4.53432 11.1693 4.13982 12.5 4.13982C13.8306 4.13982 15.1314 4.53432 16.2379 5.27346C17.3443 6.0126 18.2068 7.06319 18.7163 8.29242C19.2258 9.52166 19.3594 10.8744 19.1003 12.1795C18.8411 13.4847 18.2009 14.6837 17.2604 15.625ZM9.37497 7.7188C8.53405 8.56231 8.06184 9.70481 8.06184 10.8959C8.06184 12.087 8.53405 13.2295 9.37497 14.073C9.99972 14.6988 10.7954 15.1262 11.6621 15.3015C12.5288 15.4768 13.428 15.3923 14.2469 15.0585C15.0658 14.7248 15.7679 14.1566 16.2651 13.4253C16.7622 12.694 17.0324 11.8322 17.0416 10.948C17.0463 10.3576 16.9326 9.77219 16.7072 9.22649C16.4817 8.6808 16.1492 8.18584 15.7291 7.77088C15.3163 7.34857 14.824 7.01207 14.2806 6.78074C13.7372 6.54942 13.1534 6.42784 12.5629 6.423C11.9723 6.41815 11.3866 6.53015 10.8395 6.75254C10.2924 6.97492 9.79468 7.30331 9.37497 7.7188ZM14.2604 12.5938C13.8656 12.9946 13.3439 13.2458 12.7845 13.3045C12.225 13.3632 11.6625 13.2257 11.1932 12.9156C10.7239 12.6055 10.3768 12.142 10.2114 11.6043C10.046 11.0666 10.0725 10.4882 10.2864 9.96792C10.5002 9.44762 10.8882 9.01777 11.3839 8.75186C11.8796 8.48594 12.4523 8.40047 13.0041 8.51007C13.5558 8.61966 14.0524 8.91751 14.4088 9.35268C14.7653 9.78786 14.9595 10.3334 14.9583 10.8959C14.9431 11.5389 14.6734 12.1496 14.2083 12.5938H14.2604Z" fill="#A68465"/>
</svg>
