<svg width="90" height="90" viewBox="0 0 90 90" fill="none" xmlns="http://www.w3.org/2000/svg">
<path d="M45 82.5C44.125 82.5 43.375 82.25 42.75 81.75C42.125 81.25 41.6563 80.5938 41.3438 79.7812C40.1563 76.2812 38.6562 73 36.8438 69.9375C35.0938 66.875 32.625 63.2812 29.4375 59.1562C26.25 55.0312 23.6563 51.0938 21.6562 47.3438C19.7188 43.5938 18.75 39.0625 18.75 33.75C18.75 26.4375 21.2812 20.25 26.3437 15.1875C31.4688 10.0625 37.6875 7.5 45 7.5C52.3125 7.5 58.5 10.0625 63.5625 15.1875C68.6875 20.25 71.25 26.4375 71.25 33.75C71.25 39.4375 70.1563 44.1875 67.9688 48C65.8438 51.75 63.375 55.4687 60.5625 59.1562C57.1875 63.6562 54.625 67.4062 52.875 70.4062C51.1875 73.3438 49.7813 76.4688 48.6563 79.7812C48.3438 80.6562 47.8438 81.3438 47.1563 81.8438C46.5313 82.2812 45.8125 82.5 45 82.5ZM45 43.125C47.625 43.125 49.8438 42.2188 51.6562 40.4062C53.4688 38.5938 54.375 36.375 54.375 33.75C54.375 31.125 53.4688 28.9062 51.6562 27.0937C49.8438 25.2812 47.625 24.375 45 24.375C42.375 24.375 40.1562 25.2812 38.3438 27.0937C36.5312 28.9062 35.625 31.125 35.625 33.75C35.625 36.375 36.5312 38.5938 38.3438 40.4062C40.1562 42.2188 42.375 43.125 45 43.125Z" fill="#604C3D"/>
</svg>
