<svg width="33" height="24" viewBox="0 0 33 24" fill="none" xmlns="http://www.w3.org/2000/svg">
<g clip-path="url(#clip0_233_1341)">
<path d="M0 0H33V12H0V0Z" fill="#0038A8"/>
<path d="M0 12H33V24H0V12Z" fill="#CE1126"/>
<path d="M21.4345 12L0 24V0" fill="white"/>
<path d="M1.37671 2.12012L2.11405 2.75012L2.96999 2.29012L2.58843 3.16512L3.3103 3.81512L2.33061 3.73512L1.91296 4.59512L1.69124 3.67012L0.721863 3.55012L1.56233 3.05012L1.37671 2.12012ZM18.0726 10.7351L18.0933 11.6851L19.0214 12.0001L18.0933 12.3101L18.0726 13.2601L17.4797 12.5051L16.5412 12.7801L17.0981 12.0001L16.5412 11.2201L17.4797 11.4951L18.0726 10.7351ZM1.91811 19.4051L2.33061 20.2651L3.3103 20.1851L2.59358 20.8351L2.97514 21.7101L2.11921 21.2551L1.37671 21.8751L1.56233 20.9401L0.721863 20.4501L1.69639 20.3301L1.91811 19.4051ZM7.80655 6.95512L7.48686 7.26512L7.64671 9.61512L7.49202 9.63012L7.19811 7.48512L6.93514 7.73512L7.32702 9.65512C7.01015 9.71559 6.70874 9.83624 6.44014 10.0101L5.32124 8.39012H4.94999L6.31124 10.1051C6.26888 10.1371 6.22761 10.1705 6.18749 10.2051L4.58389 8.43012H4.13014V8.87012L5.95546 10.4201L5.85233 10.5451L4.08374 9.23012V9.58512L5.75952 10.6701C5.58421 10.9301 5.4553 11.2201 5.39343 11.5301L3.41858 11.1501L3.15561 11.4001L5.36764 11.6851C5.35733 11.7351 5.35218 11.7901 5.35218 11.8401L2.92874 11.6901L2.60905 12.0001L2.92874 12.3101L5.35218 12.1551L5.36764 12.3101L3.15561 12.5951L3.41343 12.8451L5.39343 12.4651C5.45579 12.7724 5.58021 13.0647 5.75952 13.3251L4.08374 14.4101V14.7701L5.85233 13.4551C5.88535 13.4962 5.91975 13.5362 5.95546 13.5751L4.13014 15.1251V15.5651H4.58905L6.18749 13.7951L6.31639 13.8951L4.94999 15.6101H5.32124L6.44014 13.9851C6.70311 14.1551 7.00733 14.2801 7.32702 14.3401L6.93514 16.2601L7.19296 16.5101L7.48686 14.3651C7.53843 14.3751 7.58999 14.3801 7.64671 14.3801L7.49202 16.7301L7.80655 17.0401L8.13139 16.7301L7.97155 14.3801L8.12624 14.3651L8.42014 16.5151L8.68311 16.2601L8.29124 14.3401C8.60811 14.2796 8.90952 14.159 9.17811 13.9851L10.297 15.6101H10.6683L9.30702 13.8951C9.34938 13.8631 9.39065 13.8297 9.43077 13.7951L11.0344 15.5651H11.4881V15.1251L9.6628 13.5751L9.76593 13.4551L11.5345 14.7701V14.4101L9.85874 13.3251C10.0341 13.0701 10.163 12.7751 10.2248 12.4651L12.1997 12.8451L12.4626 12.5951L10.2506 12.3101C10.2609 12.2601 10.2661 12.2101 10.2661 12.1551L12.6895 12.3051L13.0092 12.0001L12.6895 11.6901L10.2661 11.8401L10.2506 11.6901L12.4626 11.4051L12.2048 11.1551L10.2248 11.5301C10.1625 11.2228 10.038 10.9306 9.85874 10.6701L11.5345 9.58512V9.23012L9.76593 10.5451C9.7329 10.504 9.69851 10.464 9.6628 10.4251L11.4881 8.87512V8.43012H11.0344L9.43593 10.2051C9.39412 10.1704 9.35112 10.1371 9.30702 10.1051L10.6683 8.39012H10.297L9.17811 10.0101C8.91514 9.84012 8.61093 9.71512 8.29124 9.65512L8.68311 7.74012L8.4253 7.49012L8.13139 9.63012L7.97155 9.61512L8.12624 7.26512L7.80655 6.95512Z" fill="#FCD116"/>
</g>
<defs>
<clipPath id="clip0_233_1341">
<rect width="33" height="24" rx="2" fill="white"/>
</clipPath>
</defs>
</svg>
