<svg width="25" height="25" viewBox="0 0 25 25" fill="none" xmlns="http://www.w3.org/2000/svg">
<path d="M22.917 17.625V20.75C22.9182 21.0401 22.8587 21.3273 22.7425 21.5931C22.6263 21.8589 22.4558 22.0975 22.2421 22.2936C22.0283 22.4897 21.7759 22.6391 21.5011 22.732C21.2263 22.8249 20.9351 22.8595 20.6461 22.8334C17.4408 22.4851 14.3618 21.3898 11.6566 19.6354C9.13972 18.0361 7.00588 15.9023 5.40657 13.3854C3.64613 10.6679 2.55057 7.57397 2.20865 4.35419C2.18262 4.06613 2.21685 3.77581 2.30917 3.50171C2.40149 3.22761 2.54987 2.97574 2.74486 2.76212C2.93986 2.54851 3.1772 2.37784 3.44177 2.26098C3.70633 2.14412 3.99234 2.08363 4.28157 2.08335H7.40657C7.91209 2.07838 8.40218 2.25739 8.78549 2.58703C9.16879 2.91667 9.41915 3.37444 9.4899 3.87502C9.6218 4.87509 9.86641 5.85703 10.2191 6.8021C10.3592 7.17494 10.3895 7.58014 10.3065 7.96969C10.2234 8.35923 10.0304 8.7168 9.75032 9.00002L8.4274 10.3229C9.91027 12.9308 12.0695 15.0901 14.6774 16.5729L16.0003 15.25C16.2835 14.97 16.6411 14.7769 17.0306 14.6939C17.4202 14.6108 17.8254 14.6411 18.1982 14.7813C19.1433 15.1339 20.1252 15.3785 21.1253 15.5104C21.6313 15.5818 22.0934 15.8367 22.4238 16.2266C22.7541 16.6165 22.9297 17.1142 22.917 17.625Z" stroke="#A68465" stroke-width="2" stroke-linecap="round" stroke-linejoin="round"/>
</svg>
