<svg width="18" height="18" viewBox="0 0 18 18" fill="none" xmlns="http://www.w3.org/2000/svg">
<mask id="mask0_1187_2151" style="mask-type:alpha" maskUnits="userSpaceOnUse" x="0" y="0" width="18" height="18">
<rect width="18" height="18" fill="#D9D9D9"/>
</mask>
<g mask="url(#mask0_1187_2151)">
<path d="M8.25 13.337H9.75V10.2758H12.75V8.74518H9.75V5.68395H8.25V8.74518H5.25V10.2758H8.25V13.337ZM9 17.1635C7.9625 17.1635 6.9875 16.9627 6.075 16.5609C5.1625 16.1591 4.36875 15.6138 3.69375 14.925C3.01875 14.2362 2.48437 13.4263 2.09062 12.4952C1.69687 11.5641 1.5 10.5692 1.5 9.51048C1.5 8.45181 1.69687 7.45691 2.09062 6.52579C2.48437 5.59467 3.01875 4.78472 3.69375 4.09594C4.36875 3.40717 5.1625 2.86189 6.075 2.4601C6.9875 2.05831 7.9625 1.85742 9 1.85742C10.0375 1.85742 11.0125 2.05831 11.925 2.4601C12.8375 2.86189 13.6312 3.40717 14.3062 4.09594C14.9812 4.78472 15.5156 5.59467 15.9094 6.52579C16.3031 7.45691 16.5 8.45181 16.5 9.51048C16.5 10.5692 16.3031 11.5641 15.9094 12.4952C15.5156 13.4263 14.9812 14.2362 14.3062 14.925C13.6312 15.6138 12.8375 16.1591 11.925 16.5609C11.0125 16.9627 10.0375 17.1635 9 17.1635ZM9 15.6329C10.675 15.6329 12.0937 15.0398 13.2562 13.8536C14.4187 12.6674 15 11.2197 15 9.51048C15 7.8013 14.4187 6.3536 13.2562 5.16737C12.0937 3.98115 10.675 3.38803 9 3.38803C7.325 3.38803 5.90625 3.98115 4.74375 5.16737C3.58125 6.3536 3 7.8013 3 9.51048C3 11.2197 3.58125 12.6674 4.74375 13.8536C5.90625 15.0398 7.325 15.6329 9 15.6329Z" fill="white"/>
</g>
</svg>
