<svg width="21" height="21" viewBox="0 0 21 21" fill="none" xmlns="http://www.w3.org/2000/svg">
<path d="M9.66699 3.83332H3.83366C3.39163 3.83332 2.96771 4.00891 2.65515 4.32147C2.34259 4.63403 2.16699 5.05796 2.16699 5.49999V17.1667C2.16699 17.6087 2.34259 18.0326 2.65515 18.3452C2.96771 18.6577 3.39163 18.8333 3.83366 18.8333H15.5003C15.9424 18.8333 16.3663 18.6577 16.6788 18.3452C16.9914 18.0326 17.167 17.6087 17.167 17.1667V11.3333M15.917 2.58332C16.2485 2.2518 16.6982 2.06555 17.167 2.06555C17.6358 2.06555 18.0855 2.2518 18.417 2.58332C18.7485 2.91484 18.9348 3.36448 18.9348 3.83332C18.9348 4.30216 18.7485 4.7518 18.417 5.08332L10.5003 13L7.16699 13.8333L8.00033 10.5L15.917 2.58332Z" stroke="#A68465" stroke-width="2" stroke-linecap="round" stroke-linejoin="round"/>
</svg>
