<svg width="15" height="15" viewBox="0 0 15 15" fill="none" xmlns="http://www.w3.org/2000/svg">
<path d="M14.5508 0.220215H5.99527C5.78031 0.220215 5.60637 0.394158 5.60637 0.609116C5.60637 0.824074 5.78031 0.998017 5.99527 0.998017H13.612L1.05364 13.5564C0.901717 13.7083 0.901717 13.9544 1.05364 14.1063C1.12958 14.1822 1.22911 14.2202 1.32861 14.2202C1.4281 14.2202 1.5276 14.1822 1.60358 14.1063L14.1619 1.54791V9.16469C14.1619 9.37965 14.3358 9.55359 14.5508 9.55359C14.7658 9.55359 14.9397 9.37965 14.9397 9.16469V0.609116C14.9397 0.394158 14.7657 0.220215 14.5508 0.220215Z" fill="#604C3D"/>
</svg>
