<svg width="26" height="26" viewBox="0 0 26 26" fill="none" xmlns="http://www.w3.org/2000/svg">
<path d="M22 13.5C21.9837 12.9156 21.8055 12.3466 21.4844 11.8572C21.1641 11.3687 20.7136 10.9779 20.1835 10.73C20.3852 10.1809 20.4277 9.58653 20.3101 9.01389C20.1916 8.44035 19.9148 7.91204 19.5122 7.48776C19.0871 7.0852 18.5597 6.80928 17.9861 6.68987C17.4135 6.57226 16.8191 6.61478 16.27 6.81652C16.023 6.28549 15.6331 5.83408 15.1437 5.51384C14.6543 5.19359 14.0853 5.01447 13.5 5C12.9156 5.01538 12.3484 5.19269 11.8599 5.51384C11.3714 5.83498 10.9833 6.2864 10.7381 6.81652C10.1881 6.61478 9.59195 6.57046 9.01751 6.68987C8.44306 6.80747 7.91385 7.08429 7.48867 7.48776C7.0861 7.91294 6.81109 8.44216 6.69439 9.01479C6.57679 9.58743 6.62202 10.1818 6.82466 10.73C6.29364 10.9779 5.84132 11.3678 5.51926 11.8563C5.19721 12.3448 5.01719 12.9147 5 13.5C5.01809 14.0853 5.19721 14.6543 5.51926 15.1437C5.84132 15.6322 6.29364 16.023 6.82466 16.27C6.62202 16.8182 6.57679 17.4126 6.69439 17.9852C6.81199 18.5587 7.0861 19.0871 7.48776 19.5122C7.91294 19.913 8.44125 20.188 9.01389 20.3065C9.58653 20.4259 10.1809 20.3825 10.73 20.1835C10.9779 20.7136 11.3678 21.1641 11.8572 21.4853C12.3457 21.8055 12.9156 21.9837 13.5 22C14.0853 21.9855 14.6543 21.8073 15.1437 21.4871C15.6331 21.1668 16.023 20.7145 16.27 20.1844C16.8164 20.4006 17.4153 20.4522 17.9915 20.3327C18.5669 20.2133 19.0952 19.9284 19.5113 19.5122C19.9275 19.0961 20.2133 18.5678 20.3327 17.9915C20.4522 17.4153 20.4006 16.8164 20.1835 16.27C20.7136 16.0221 21.1641 15.6322 21.4853 15.1428C21.8055 14.6543 21.9837 14.0844 22 13.5ZM12.2896 16.9829L9.18758 13.8818L10.3573 12.7039L12.2317 14.5783L16.2121 10.2415L17.4307 11.3687L12.2896 16.9829Z" fill="#A68465"/>
</svg>
