<svg width="25" height="25" viewBox="0 0 25 25" fill="none" xmlns="http://www.w3.org/2000/svg">
<mask id="mask0_1361_1509" style="mask-type:alpha" maskUnits="userSpaceOnUse" x="0" y="0" width="25" height="25">
<rect x="0.101562" y="0.359863" width="24" height="24" fill="#D9D9D9"/>
</mask>
<g mask="url(#mask0_1361_1509)">
<path d="M12.1016 14.3599C11.8182 14.3599 11.5807 14.264 11.3891 14.0724C11.1974 13.8807 11.1016 13.6432 11.1016 13.3599C11.1016 13.0765 11.1974 12.839 11.3891 12.6474C11.5807 12.4557 11.8182 12.3599 12.1016 12.3599C12.3849 12.3599 12.6224 12.4557 12.8141 12.6474C13.0057 12.839 13.1016 13.0765 13.1016 13.3599C13.1016 13.6432 13.0057 13.8807 12.8141 14.0724C12.6224 14.264 12.3849 14.3599 12.1016 14.3599ZM8.10156 14.3599C7.81823 14.3599 7.58073 14.264 7.38906 14.0724C7.1974 13.8807 7.10156 13.6432 7.10156 13.3599C7.10156 13.0765 7.1974 12.839 7.38906 12.6474C7.58073 12.4557 7.81823 12.3599 8.10156 12.3599C8.3849 12.3599 8.6224 12.4557 8.81406 12.6474C9.00573 12.839 9.10156 13.0765 9.10156 13.3599C9.10156 13.6432 9.00573 13.8807 8.81406 14.0724C8.6224 14.264 8.3849 14.3599 8.10156 14.3599ZM16.1016 14.3599C15.8182 14.3599 15.5807 14.264 15.3891 14.0724C15.1974 13.8807 15.1016 13.6432 15.1016 13.3599C15.1016 13.0765 15.1974 12.839 15.3891 12.6474C15.5807 12.4557 15.8182 12.3599 16.1016 12.3599C16.3849 12.3599 16.6224 12.4557 16.8141 12.6474C17.0057 12.839 17.1016 13.0765 17.1016 13.3599C17.1016 13.6432 17.0057 13.8807 16.8141 14.0724C16.6224 14.264 16.3849 14.3599 16.1016 14.3599ZM12.1016 18.3599C11.8182 18.3599 11.5807 18.264 11.3891 18.0724C11.1974 17.8807 11.1016 17.6432 11.1016 17.3599C11.1016 17.0765 11.1974 16.839 11.3891 16.6474C11.5807 16.4557 11.8182 16.3599 12.1016 16.3599C12.3849 16.3599 12.6224 16.4557 12.8141 16.6474C13.0057 16.839 13.1016 17.0765 13.1016 17.3599C13.1016 17.6432 13.0057 17.8807 12.8141 18.0724C12.6224 18.264 12.3849 18.3599 12.1016 18.3599ZM8.10156 18.3599C7.81823 18.3599 7.58073 18.264 7.38906 18.0724C7.1974 17.8807 7.10156 17.6432 7.10156 17.3599C7.10156 17.0765 7.1974 16.839 7.38906 16.6474C7.58073 16.4557 7.81823 16.3599 8.10156 16.3599C8.3849 16.3599 8.6224 16.4557 8.81406 16.6474C9.00573 16.839 9.10156 17.0765 9.10156 17.3599C9.10156 17.6432 9.00573 17.8807 8.81406 18.0724C8.6224 18.264 8.3849 18.3599 8.10156 18.3599ZM16.1016 18.3599C15.8182 18.3599 15.5807 18.264 15.3891 18.0724C15.1974 17.8807 15.1016 17.6432 15.1016 17.3599C15.1016 17.0765 15.1974 16.839 15.3891 16.6474C15.5807 16.4557 15.8182 16.3599 16.1016 16.3599C16.3849 16.3599 16.6224 16.4557 16.8141 16.6474C17.0057 16.839 17.1016 17.0765 17.1016 17.3599C17.1016 17.6432 17.0057 17.8807 16.8141 18.0724C16.6224 18.264 16.3849 18.3599 16.1016 18.3599ZM5.10156 22.3599C4.55156 22.3599 4.08073 22.164 3.68906 21.7724C3.2974 21.3807 3.10156 20.9099 3.10156 20.3599V6.35986C3.10156 5.80986 3.2974 5.33903 3.68906 4.94736C4.08073 4.5557 4.55156 4.35986 5.10156 4.35986H6.10156V2.35986H8.10156V4.35986H16.1016V2.35986H18.1016V4.35986H19.1016C19.6516 4.35986 20.1224 4.5557 20.5141 4.94736C20.9057 5.33903 21.1016 5.80986 21.1016 6.35986V20.3599C21.1016 20.9099 20.9057 21.3807 20.5141 21.7724C20.1224 22.164 19.6516 22.3599 19.1016 22.3599H5.10156ZM5.10156 20.3599H19.1016V10.3599H5.10156V20.3599Z" fill="#A68465"/>
</g>
</svg>
