<svg width="25" height="25" viewBox="0 0 25 25" fill="none" xmlns="http://www.w3.org/2000/svg">
<mask id="mask0_1169_2065" style="mask-type:alpha" maskUnits="userSpaceOnUse" x="0" y="0" width="25" height="25">
<rect x="0.102539" y="0.359863" width="24" height="24" fill="#D9D9D9"/>
</mask>
<g mask="url(#mask0_1169_2065)">
<path d="M12.1025 14.3599C11.8192 14.3599 11.5817 14.264 11.39 14.0724C11.1984 13.8807 11.1025 13.6432 11.1025 13.3599C11.1025 13.0765 11.1984 12.839 11.39 12.6474C11.5817 12.4557 11.8192 12.3599 12.1025 12.3599C12.3859 12.3599 12.6234 12.4557 12.815 12.6474C13.0067 12.839 13.1025 13.0765 13.1025 13.3599C13.1025 13.6432 13.0067 13.8807 12.815 14.0724C12.6234 14.264 12.3859 14.3599 12.1025 14.3599ZM8.10254 14.3599C7.81921 14.3599 7.58171 14.264 7.39004 14.0724C7.19837 13.8807 7.10254 13.6432 7.10254 13.3599C7.10254 13.0765 7.19837 12.839 7.39004 12.6474C7.58171 12.4557 7.81921 12.3599 8.10254 12.3599C8.38587 12.3599 8.62337 12.4557 8.81504 12.6474C9.00671 12.839 9.10254 13.0765 9.10254 13.3599C9.10254 13.6432 9.00671 13.8807 8.81504 14.0724C8.62337 14.264 8.38587 14.3599 8.10254 14.3599ZM16.1025 14.3599C15.8192 14.3599 15.5817 14.264 15.39 14.0724C15.1984 13.8807 15.1025 13.6432 15.1025 13.3599C15.1025 13.0765 15.1984 12.839 15.39 12.6474C15.5817 12.4557 15.8192 12.3599 16.1025 12.3599C16.3859 12.3599 16.6234 12.4557 16.815 12.6474C17.0067 12.839 17.1025 13.0765 17.1025 13.3599C17.1025 13.6432 17.0067 13.8807 16.815 14.0724C16.6234 14.264 16.3859 14.3599 16.1025 14.3599ZM12.1025 18.3599C11.8192 18.3599 11.5817 18.264 11.39 18.0724C11.1984 17.8807 11.1025 17.6432 11.1025 17.3599C11.1025 17.0765 11.1984 16.839 11.39 16.6474C11.5817 16.4557 11.8192 16.3599 12.1025 16.3599C12.3859 16.3599 12.6234 16.4557 12.815 16.6474C13.0067 16.839 13.1025 17.0765 13.1025 17.3599C13.1025 17.6432 13.0067 17.8807 12.815 18.0724C12.6234 18.264 12.3859 18.3599 12.1025 18.3599ZM8.10254 18.3599C7.81921 18.3599 7.58171 18.264 7.39004 18.0724C7.19837 17.8807 7.10254 17.6432 7.10254 17.3599C7.10254 17.0765 7.19837 16.839 7.39004 16.6474C7.58171 16.4557 7.81921 16.3599 8.10254 16.3599C8.38587 16.3599 8.62337 16.4557 8.81504 16.6474C9.00671 16.839 9.10254 17.0765 9.10254 17.3599C9.10254 17.6432 9.00671 17.8807 8.81504 18.0724C8.62337 18.264 8.38587 18.3599 8.10254 18.3599ZM16.1025 18.3599C15.8192 18.3599 15.5817 18.264 15.39 18.0724C15.1984 17.8807 15.1025 17.6432 15.1025 17.3599C15.1025 17.0765 15.1984 16.839 15.39 16.6474C15.5817 16.4557 15.8192 16.3599 16.1025 16.3599C16.3859 16.3599 16.6234 16.4557 16.815 16.6474C17.0067 16.839 17.1025 17.0765 17.1025 17.3599C17.1025 17.6432 17.0067 17.8807 16.815 18.0724C16.6234 18.264 16.3859 18.3599 16.1025 18.3599ZM5.10254 22.3599C4.55254 22.3599 4.08171 22.164 3.69004 21.7724C3.29837 21.3807 3.10254 20.9099 3.10254 20.3599V6.35986C3.10254 5.80986 3.29837 5.33903 3.69004 4.94736C4.08171 4.5557 4.55254 4.35986 5.10254 4.35986H6.10254V2.35986H8.10254V4.35986H16.1025V2.35986H18.1025V4.35986H19.1025C19.6525 4.35986 20.1234 4.5557 20.515 4.94736C20.9067 5.33903 21.1025 5.80986 21.1025 6.35986V20.3599C21.1025 20.9099 20.9067 21.3807 20.515 21.7724C20.1234 22.164 19.6525 22.3599 19.1025 22.3599H5.10254ZM5.10254 20.3599H19.1025V10.3599H5.10254V20.3599Z" fill="#A68465"/>
</g>
</svg>
