<svg width="27" height="27" viewBox="0 0 27 27" fill="none" xmlns="http://www.w3.org/2000/svg">
<path d="M15.447 3.94872L17.427 7.90872C17.697 8.45997 18.417 8.98872 19.0245 9.08997L22.6132 9.68622C24.9082 10.0687 25.4482 11.7337 23.7945 13.3762L21.0045 16.1662C20.532 16.6387 20.2732 17.55 20.4195 18.2025L21.2183 21.6562C21.8483 24.39 20.397 25.4475 17.9783 24.0187L14.6145 22.0275C14.007 21.6675 13.0058 21.6675 12.387 22.0275L9.02325 24.0187C6.61575 25.4475 5.15325 24.3787 5.78325 21.6562L6.582 18.2025C6.72825 17.55 6.4695 16.6387 5.997 16.1662L3.207 13.3762C1.5645 11.7337 2.09325 10.0687 4.38825 9.68622L7.977 9.08997C8.57325 8.98872 9.29325 8.45997 9.56325 7.90872L11.5433 3.94872C12.6233 1.79997 14.3783 1.79997 15.447 3.94872Z" stroke="#604C3D" stroke-width="1.5" stroke-linecap="round" stroke-linejoin="round"/>
</svg>
