<svg width="25" height="28" viewBox="0 0 25 28" fill="none" xmlns="http://www.w3.org/2000/svg">
<path d="M13.7499 1.49976H14.0908C18.1673 1.49976 20.2055 1.49976 21.621 2.49705C22.0266 2.78279 22.3867 3.12166 22.6903 3.50337C23.7499 4.8356 23.7499 6.75395 23.7499 10.5907V13.7725C23.7499 17.4764 23.7499 19.3284 23.1637 20.8076C22.2214 23.1855 20.2285 25.0612 17.7019 25.9481C16.1303 26.4998 14.1626 26.4998 10.2272 26.4998C7.97832 26.4998 6.8539 26.4998 5.95585 26.1845C4.51212 25.6777 3.37332 24.6059 2.83483 23.2471C2.49988 22.4019 2.49988 21.3436 2.49988 19.227V13.9998" stroke="#A68465" stroke-width="2" stroke-linecap="round" stroke-linejoin="round"/>
<path d="M23.75 14C23.75 16.3012 21.8845 18.1667 19.5833 18.1667C18.7511 18.1667 17.77 18.0208 16.9608 18.2377C16.2419 18.4303 15.6803 18.9919 15.4877 19.7108C15.2708 20.52 15.4167 21.5011 15.4167 22.3333C15.4167 24.6345 13.5512 26.5 11.25 26.5" stroke="#A68465" stroke-width="2" stroke-linecap="round" stroke-linejoin="round"/>
<path d="M11.25 6.49976L1.25 6.49976M6.25 1.49976V11.4998" stroke="#A68465" stroke-width="2" stroke-linecap="round"/>
</svg>
