<svg width="21" height="21" viewBox="0 0 21 21" fill="none" xmlns="http://www.w3.org/2000/svg">
<path d="M13.4433 4.11339C12.6878 4.11339 12.0211 4.35784 11.4433 4.84673C10.8655 5.33562 10.51 5.93562 10.3767 6.64673H2.17666C1.99888 6.64673 1.85444 6.70228 1.74333 6.81339C1.63222 6.92451 1.57666 7.06895 1.57666 7.24673C1.57666 7.42451 1.63222 7.58006 1.74333 7.7134C1.85444 7.84673 1.99888 7.91339 2.17666 7.91339H10.3767C10.51 8.62451 10.8655 9.21339 11.4433 9.68006C12.0211 10.1467 12.6878 10.3801 13.4433 10.3801C14.1989 10.3801 14.8544 10.1467 15.41 9.68006C15.9655 9.21339 16.3322 8.62451 16.51 7.91339H18.4433C18.6211 7.91339 18.7656 7.84673 18.8767 7.7134C18.9878 7.58006 19.0433 7.42451 19.0433 7.24673C19.0433 7.06895 18.9878 6.92451 18.8767 6.81339C18.7656 6.70228 18.6211 6.64673 18.4433 6.64673H16.51C16.3322 5.93562 15.9655 5.33562 15.41 4.84673C14.8544 4.35784 14.1989 4.11339 13.4433 4.11339ZM13.4433 5.38006C13.9767 5.38006 14.4211 5.56895 14.7767 5.94673C15.1322 6.32451 15.31 6.76895 15.31 7.28006C15.31 7.79117 15.1322 8.22451 14.7767 8.58006C14.4211 8.93562 13.9767 9.11339 13.4433 9.11339C12.91 9.11339 12.4655 8.93562 12.11 8.58006C11.7544 8.22451 11.5767 7.79117 11.5767 7.28006C11.5767 6.76895 11.7544 6.32451 12.11 5.94673C12.4655 5.56895 12.91 5.38006 13.4433 5.38006ZM7.17666 10.3801C6.4211 10.3801 5.76555 10.6134 5.20999 11.0801C4.65444 11.5467 4.28777 12.1578 4.10999 12.9134H2.17666C1.99888 12.9134 1.85444 12.969 1.74333 13.0801C1.63222 13.1912 1.57666 13.3356 1.57666 13.5134C1.57666 13.6912 1.63222 13.8356 1.74333 13.9467C1.85444 14.0578 1.99888 14.1134 2.17666 14.1134H4.10999C4.28777 14.869 4.65444 15.4801 5.20999 15.9467C5.76555 16.4134 6.4211 16.6467 7.17666 16.6467C7.93222 16.6467 8.59888 16.4134 9.17666 15.9467C9.75444 15.4801 10.11 14.869 10.2433 14.1134H18.4433C18.6211 14.1134 18.7656 14.0578 18.8767 13.9467C18.9878 13.8356 19.0433 13.6912 19.0433 13.5134C19.0433 13.3356 18.9878 13.1912 18.8767 13.0801C18.7656 12.969 18.6211 12.9134 18.4433 12.9134H10.2433C10.11 12.1578 9.75444 11.5467 9.17666 11.0801C8.59888 10.6134 7.93222 10.3801 7.17666 10.3801ZM7.17666 11.6467C7.70999 11.6467 8.15444 11.8245 8.50999 12.1801C8.86555 12.5356 9.04333 12.9801 9.04333 13.5134C9.04333 14.0467 8.86555 14.4912 8.50999 14.8467C8.15444 15.2023 7.70999 15.3801 7.17666 15.3801C6.64333 15.3801 6.19888 15.2023 5.84333 14.8467C5.48777 14.4912 5.30999 14.0467 5.30999 13.5134C5.30999 12.9801 5.48777 12.5356 5.84333 12.1801C6.19888 11.8245 6.64333 11.6467 7.17666 11.6467Z" fill="#402F27"/>
</svg>
