<svg width="24" height="24" viewBox="0 0 24 24" fill="none" xmlns="http://www.w3.org/2000/svg">
<g clip-path="url(#clip0_69_327)">
<rect width="24" height="24" fill="#8C6C50"/>
<path d="M11.9999 16.4446C14.4544 16.4446 16.4443 14.4547 16.4443 12.0001C16.4443 9.54551 14.4544 7.55566 11.9999 7.55566C9.54526 7.55566 7.55542 9.54551 7.55542 12.0001C7.55542 14.4547 9.54526 16.4446 11.9999 16.4446Z" stroke="white" stroke-width="2.3" stroke-linecap="round" stroke-linejoin="round"/>
<path d="M2 16.4444V7.55556C2 4.48731 4.48731 2 7.55556 2H16.4444C19.5127 2 22 4.48731 22 7.55556V16.4444C22 19.5127 19.5127 22 16.4444 22H7.55556C4.48731 22 2 19.5127 2 16.4444Z" stroke="white" stroke-width="2.5"/>
<path d="M18.1111 5.90071L18.1228 5.8877" stroke="white" stroke-width="2.5" stroke-linecap="round" stroke-linejoin="round"/>
</g>
<defs>
<clipPath id="clip0_69_327">
<rect width="24" height="24" fill="white"/>
</clipPath>
</defs>
</svg>
