<svg width="30" height="25" viewBox="0 0 30 25" fill="none" xmlns="http://www.w3.org/2000/svg">
<g clip-path="url(#clip0_2147_1166)">
<path d="M22.425 18.6873C20.2882 20.0446 17.6864 20.7966 15 20.8332C6.25 20.8332 1.25 12.4998 1.25 12.4998C2.80486 10.0851 4.96142 7.97547 7.575 6.31234M12.375 4.4165C13.2354 4.24867 14.1163 4.16477 15 4.1665C23.75 4.1665 28.75 12.4998 28.75 12.4998C27.9912 13.6828 27.0863 14.7964 26.05 15.8228M17.65 14.7082C17.3067 15.0152 16.8927 15.2615 16.4327 15.4323C15.9727 15.6031 15.4761 15.6949 14.9726 15.7023C14.4691 15.7097 13.969 15.6325 13.502 15.4753C13.0351 15.3182 12.6109 15.0842 12.2548 14.7875C11.8987 14.4908 11.618 14.1373 11.4294 13.7482C11.2408 13.359 11.1482 12.9423 11.157 12.5227C11.1659 12.1031 11.2761 11.6893 11.4811 11.3059C11.6861 10.9226 11.9816 10.5776 12.35 10.2915M1.25 1.0415L28.75 23.9582" stroke="#B3B3B3" stroke-width="2" stroke-linecap="round" stroke-linejoin="round"/>
</g>
<defs>
<clipPath id="clip0_2147_1166">
<rect width="30" height="25" fill="white"/>
</clipPath>
</defs>
</svg>
