<svg width="117" height="91" viewBox="0 0 117 91" fill="none" xmlns="http://www.w3.org/2000/svg">
<path d="M8.37598 88.6729C15.3883 86.5475 22.6775 84.9295 19.498 88.5859C18.7842 89.4069 17.9859 90.2144 17.1367 91H9.85449C9.34409 90.2367 8.85125 89.4607 8.37598 88.6729ZM99.0801 16.3672C100.282 17.5254 101.435 18.7346 102.535 19.9912L74.4395 31.9131C74.3652 31.9549 29.7559 57.1113 35.4395 69.2881C41.1242 81.4623 94.649 61.6075 94.752 61.5693L116.561 51.3066C116.85 53.664 117 56.0645 117 58.5C117 59.1697 116.987 59.8367 116.965 60.501C110.964 61.711 98.2412 67.2334 98.2412 67.2334L60.1797 86.0684C61.9359 84.7562 63.5631 83.3257 64.8281 81.8164C70.376 75.1972 43.8027 86.7334 43.8027 86.7334L35.1807 91H27.2637C32.2107 87.1008 35.7792 83.0868 34.7305 80.1182C33.3972 76.3453 24.7563 78.2131 15.8906 81.293C16.2434 80.9304 16.5793 80.564 16.8916 80.1914C20.2446 76.1909 11.8645 78.8224 4.70898 81.5303C2.8334 77.1552 1.47503 72.5057 0.712891 67.6582L14.1279 61.0771C14.181 61.0553 26.6278 55.9217 32.1641 49.3164C32.9823 48.3401 33.1012 47.7591 32.71 47.4775L99.0801 16.3672ZM116.648 64.9375C116.295 68.1706 115.677 71.3242 114.818 74.377C103.228 77.5503 85.9741 87.1826 85.8955 87.2266L78.0332 91H66.7393L101.231 74.0771C101.303 74.0477 110.558 70.223 116.648 64.9375ZM88.4092 89.415C88.4564 89.3946 115.409 77.7156 110.104 84.5215C108.319 86.8126 105.93 89.045 103.548 91H102.135C103.968 89.5558 105.666 87.9788 106.952 86.3281C111.326 80.7163 94.3516 88.1918 88.2344 91H85.3936L88.4092 89.415ZM106.49 25.042L90.7744 32.7959C90.7222 32.822 81.4268 37.4777 73.3701 43.0264C73.0645 43.2368 72.7585 43.4454 72.457 43.6582C71.6562 44.2236 70.873 44.7981 70.1162 45.375C69.9416 45.5081 69.7682 45.641 69.5967 45.7744C66.8903 47.8798 64.5786 50.0237 63.1797 52.0234C63.0709 52.179 62.9676 52.3336 62.8701 52.4873C61.8841 54.0413 61.4871 55.4969 61.9307 56.7646C62.1038 57.2591 62.4032 57.656 62.8115 57.9678C62.9521 58.0751 63.1056 58.1715 63.2715 58.2588C63.3321 58.2907 63.3941 58.3213 63.458 58.3506C63.6018 58.4165 63.7533 58.4763 63.9131 58.5293C64.0461 58.5734 64.1845 58.613 64.3281 58.6484C64.4135 58.6695 64.5008 58.6889 64.5898 58.707C65.194 58.8299 65.8806 58.8855 66.6367 58.8809C67.6359 58.8747 68.7557 58.7637 69.9648 58.5693C70.1376 58.5416 70.312 58.5116 70.4883 58.4805C72.2574 58.1678 74.2004 57.6876 76.2246 57.0977C76.627 56.9804 77.0333 56.8609 77.4414 56.7354C78.2616 56.4831 79.0916 56.2145 79.9258 55.9346C80.278 55.8164 80.6311 55.6964 80.9844 55.5742L80.9961 55.5703C82.0667 55.1998 83.139 54.81 84.2021 54.4131C84.5031 54.3007 84.8034 54.1879 85.1025 54.0742C93.7596 50.7835 101.512 47.0146 101.512 47.0146L114.534 41.6494C114.768 42.4276 114.986 43.2125 115.188 44.0039L98.3125 51.1875C98.2288 51.2233 58.119 68.3814 55.2793 60.2646C52.4429 52.1541 86.002 34.1908 86.125 34.125L106.066 24.4424C106.209 24.6412 106.35 24.8413 106.49 25.042ZM58.5 0C66.7816 0 74.6611 1.7215 81.8008 4.8252L5.04785 35.0664C3.92639 37.6288 2.98451 40.2879 2.23535 43.0264L89.2656 8.73535C90.5439 9.52727 91.7888 10.3678 92.999 11.2529L27.1514 41.8438C27.0773 41.8725 14.5417 46.738 8.87109 53.2188C7.67144 54.5899 7.91798 55.1812 9.05371 55.2646L0.0136719 59.7383C0.00512199 59.3265 0 58.9138 0 58.5C0 26.1913 26.1913 0 58.5 0ZM108.972 28.9082C109.228 29.345 109.479 29.7856 109.725 30.2295L98.7178 35.3438C98.6309 35.3774 86.1052 40.2413 80.4375 46.7188C74.7501 53.2189 101.562 42.25 101.562 42.25L112.896 36.9375C113.061 37.3557 113.222 37.7764 113.379 38.1992L99.125 44.6875C99.0977 44.6975 95.7121 45.9377 91.5645 47.2734C91.1116 47.4193 90.6503 47.5683 90.1826 47.7148C89.9568 47.7856 89.73 47.8573 89.502 47.9277C88.6329 48.196 87.7497 48.4594 86.874 48.7109C85.8446 49.0066 84.8251 49.2845 83.8496 49.5293C83.7193 49.562 83.5896 49.5935 83.4609 49.625C82.8541 49.7735 82.2667 49.9084 81.707 50.0254C81.593 50.0492 81.4799 50.0714 81.3682 50.0938C80.6813 50.2312 80.0411 50.3408 79.4639 50.4131C79.3205 50.431 79.1812 50.4466 79.0459 50.46C79.0071 50.4638 78.9688 50.4682 78.9307 50.4717C78.7249 50.4903 78.5293 50.5021 78.3447 50.5088C78.2984 50.5105 78.2529 50.5128 78.208 50.5137C78.0553 50.5168 77.911 50.5131 77.7754 50.5068C77.6145 50.4994 77.466 50.4882 77.3311 50.4668C77.2111 50.4477 77.1029 50.4195 77.0049 50.3887C76.9211 50.3624 76.8451 50.3341 76.7783 50.2988C76.221 50.004 76.2727 49.3904 77.1885 48.3438C82.8759 41.8437 93.8447 36.1562 93.8447 36.1562L108.972 28.9082Z" fill="url(#paint0_linear_69_222)"/>
<defs>
<linearGradient id="paint0_linear_69_222" x1="43.4687" y1="1.25915e-06" x2="80.8437" y2="117" gradientUnits="userSpaceOnUse">
<stop stop-color="#A68563"/>
<stop offset="1" stop-color="#38281B"/>
</linearGradient>
</defs>
</svg>
