<svg width="27" height="27" viewBox="0 0 27 27" fill="none" xmlns="http://www.w3.org/2000/svg">
<path d="M15.447 3.94896L17.427 7.90897C17.697 8.46022 18.417 8.98896 19.0245 9.09021L22.6132 9.68646C24.9082 10.069 25.4482 11.734 23.7945 13.3765L21.0045 16.1665C20.532 16.639 20.2732 17.5502 20.4195 18.2027L21.2183 21.6565C21.8483 24.3902 20.397 25.4477 17.9783 24.019L14.6145 22.0277C14.007 21.6677 13.0058 21.6677 12.387 22.0277L9.02325 24.019C6.61575 25.4477 5.15325 24.379 5.78325 21.6565L6.582 18.2027C6.72825 17.5502 6.4695 16.639 5.997 16.1665L3.207 13.3765C1.5645 11.734 2.09325 10.069 4.38825 9.68646L7.977 9.09021C8.57325 8.98896 9.29325 8.46022 9.56325 7.90897L11.5433 3.94896C12.6233 1.80021 14.3783 1.80021 15.447 3.94896Z" stroke="white" stroke-width="1.5" stroke-linecap="round" stroke-linejoin="round"/>
</svg>
