<svg width="15" height="14" viewBox="0 0 15 14" fill="none" xmlns="http://www.w3.org/2000/svg">
<path d="M13.9588 0H5.40323C5.18827 0 5.01433 0.173943 5.01433 0.388901C5.01433 0.603859 5.18827 0.777802 5.40323 0.777802H13.02L0.461597 13.3362C0.309676 13.4881 0.309676 13.7342 0.461597 13.8861C0.53754 13.962 0.637071 14 0.736566 14C0.836061 14 0.935556 13.962 1.01154 13.8861L13.5699 1.3277V8.94447C13.5699 9.15943 13.7438 9.33337 13.9588 9.33337C14.1738 9.33337 14.3477 9.15943 14.3477 8.94447V0.388901C14.3477 0.173943 14.1737 0 13.9588 0Z" fill="#A68465"/>
</svg>
